<?xml version="1.0" encoding="utf-8"?>
<!-- Generator: Adobe Illustrator 16.0.4, SVG Export Plug-In . SVG Version: 6.00 Build 0)  -->
<!DOCTYPE svg PUBLIC "-//W3C//DTD SVG 1.1//EN" "http://www.w3.org/Graphics/SVG/1.1/DTD/svg11.dtd">
<svg version="1.1" id="Layer_1" xmlns="http://www.w3.org/2000/svg" xmlns:xlink="http://www.w3.org/1999/xlink" x="0px" y="0px"
	 width="595.279px" height="595.445px" viewBox="0 0 595.279 595.445" enable-background="new 0 0 595.279 595.445"
	 xml:space="preserve">
<g>
	<path fill="#FFFFFF" d="M130.961,218.267h333.357c13.096,0,23.811-10.715,23.811-23.811s-10.715-23.811-23.811-23.811H130.961
		c-13.096,0-23.811,10.715-23.811,23.811S117.865,218.267,130.961,218.267z"/>
	<path fill="#FFFFFF" d="M464.319,289.7H130.961c-13.096,0-23.811,10.715-23.811,23.812s10.715,23.811,23.811,23.811h333.357
		c13.096,0,23.811-10.715,23.811-23.811S477.414,289.7,464.319,289.7z"/>
	<path fill="#FFFFFF" d="M464.319,408.758H130.961c-13.096,0-23.811,10.715-23.811,23.817c0,13.1,10.715,23.814,23.811,23.814
		h333.357c13.096,0,23.811-10.715,23.811-23.814C488.129,419.473,477.414,408.758,464.319,408.758z"/>
</g>
</svg>
